<!-- Generated by IcoMoon.io -->
<svg version="1.1" xmlns="http://www.w3.org/2000/svg" width="32" height="32" viewBox="0 0 32 32">
<title>atom02</title>
<path fill="#fff" d="M27.367 16c0.272-0.309 0.53-0.618 0.771-0.925 2.148-2.767 2.758-5.277 1.72-7.075-0.578-0.999-1.915-2.19-5.010-2.19-0.963 0-2.031 0.132-3.155 0.361-1.28-3.794-3.313-6.17-5.694-6.17s-4.413 2.378-5.692 6.172c-1.123-0.229-2.189-0.361-3.151-0.361-3.096 0-4.433 1.191-5.012 2.191-1.038 1.797-0.428 4.308 1.72 7.073 0.24 0.309 0.497 0.619 0.769 0.925-0.272 0.309-0.529 0.618-0.769 0.925-2.148 2.765-2.758 5.275-1.72 7.074 0.577 1 1.916 2.191 5.012 2.191 0 0 0 0 0.001 0 0.974 0 2.038-0.128 3.154-0.353 1.28 3.79 3.311 6.163 5.691 6.164v0c2.382 0 4.414-2.376 5.694-6.17 1.125 0.229 2.192 0.361 3.154 0.361 3.095 0 4.433-1.191 5.009-2.189 1.039-1.797 0.43-4.309-1.72-7.077-0.24-0.307-0.498-0.616-0.77-0.925zM24.847 7.874c1.647 0 2.789 0.41 3.22 1.159 0.576 0.991-0.010 2.776-1.561 4.772-0.182 0.236-0.384 0.472-0.589 0.708-0.901-0.857-1.908-1.696-3.005-2.497-0.146-1.376-0.361-2.675-0.648-3.867 0.925-0.179 1.795-0.276 2.583-0.276zM18.531 20.383c-0.84 0.485-1.688 0.918-2.532 1.316-0.844-0.401-1.692-0.833-2.531-1.316-0.841-0.487-1.648-0.997-2.415-1.528-0.072-0.913-0.113-1.866-0.113-2.857 0-0.971 0.038-1.927 0.113-2.858 0.767-0.531 1.575-1.041 2.415-1.527 0.839-0.485 1.688-0.918 2.531-1.317 0.844 0.401 1.691 0.834 2.532 1.317 0.84 0.487 1.65 0.998 2.417 1.527 0.071 0.914 0.112 1.866 0.112 2.858s-0.040 1.943-0.111 2.857c-0.768 0.528-1.577 1.041-2.418 1.528zM20.623 21.53c-0.106 0.637-0.232 1.239-0.368 1.817-0.579-0.17-1.165-0.366-1.765-0.59 0.358-0.193 0.715-0.379 1.074-0.584 0.359-0.21 0.71-0.426 1.059-0.643zM13.509 22.757c-0.599 0.223-1.187 0.419-1.764 0.588-0.137-0.577-0.263-1.178-0.369-1.813 0.348 0.216 0.698 0.431 1.058 0.639 0.357 0.207 0.718 0.393 1.075 0.586zM8.899 17.236c-0.493-0.408-0.949-0.822-1.387-1.236 0.438-0.414 0.895-0.831 1.387-1.236-0.014 0.409-0.026 0.82-0.026 1.236s0.012 0.827 0.026 1.236zM11.378 10.468c0.105-0.626 0.234-1.227 0.375-1.811 0.575 0.171 1.16 0.366 1.755 0.586-0.359 0.192-0.719 0.379-1.075 0.584-0.357 0.209-0.707 0.422-1.055 0.64zM18.488 9.243c0.6-0.224 1.186-0.419 1.765-0.59 0.137 0.578 0.263 1.179 0.367 1.817-0.349-0.218-0.699-0.434-1.058-0.641-0.357-0.206-0.715-0.393-1.074-0.585zM23.1 14.766c0.492 0.407 0.949 0.819 1.387 1.234-0.438 0.415-0.895 0.829-1.387 1.233 0.013-0.408 0.024-0.815 0.024-1.233s-0.011-0.827-0.024-1.234zM12.646 5.806c0.953-2.342 2.207-3.741 3.352-3.741 1.308 0 2.695 1.719 3.686 4.61-1.195 0.353-2.433 0.802-3.686 1.354-1.249-0.548-2.48-0.997-3.675-1.35 0.104-0.299 0.21-0.596 0.322-0.874zM3.931 9.034c0.432-0.746 1.576-1.158 3.223-1.158 0.788 0 1.657 0.096 2.579 0.274-0.286 1.191-0.501 2.491-0.646 3.867-1.097 0.801-2.105 1.64-3.005 2.497-0.203-0.236-0.405-0.472-0.586-0.707-1.55-1.998-2.135-3.781-1.564-4.772zM7.156 24.124v0c-1.648 0-2.793-0.412-3.224-1.158-0.573-0.991 0.012-2.776 1.564-4.772 0.182-0.236 0.383-0.471 0.586-0.708 0.902 0.857 1.909 1.696 3.005 2.499 0.145 1.374 0.36 2.674 0.646 3.865-0.921 0.177-1.789 0.274-2.578 0.274zM16 29.934c-1.306-0.001-2.691-1.714-3.684-4.599 1.197-0.353 2.433-0.803 3.691-1.357 1.25 0.547 2.485 0.996 3.679 1.349-0.991 2.888-2.376 4.607-3.686 4.607zM28.067 22.968c-0.43 0.748-1.572 1.158-3.219 1.158-0.789 0-1.657-0.097-2.582-0.274 0.286-1.193 0.501-2.493 0.649-3.869 1.097-0.802 2.103-1.64 3.003-2.497 0.205 0.237 0.408 0.472 0.589 0.709 1.551 1.998 2.135 3.781 1.56 4.774z"></path>
</svg>
