<!-- Generated by IcoMoon.io -->
<svg version="1.1" xmlns="http://www.w3.org/2000/svg" width="32" height="32" viewBox="0 0 32 32">
<title>boxwire</title>
<path fill="#fff" d="M17.057 0.419c-0.863-0.571-1.989-0.558-2.839 0.034l-12.717 8.858c-0.678 0.473-1.082 1.246-1.082 2.074v9.544c0 0.849 0.425 1.64 1.134 2.108l12.925 8.544c0.845 0.559 1.942 0.559 2.787 0l13.182-8.709c0.707-0.468 1.134-1.259 1.134-2.108v-9.377c0-0.848-0.425-1.639-1.133-2.107l-13.391-8.861zM26.903 10.758l-4.872 3.271-4.569-3.323-0.029-6.535 9.47 6.587zM14.127 4.177v6.396l-4.682 3.274-4.67-3.132 9.352-6.538zM3.495 13.867l3.023 2.025-3.023 2.115v-4.14zM14.207 27.503l-9.43-6.324 4.71-3.292 4.719 3.166v6.451zM12.416 15.84l3.053-2.135 3.556 2.337-3.152 2.117-3.457-2.319zM17.538 27.503v-6.453l4.51-3.023 4.856 3.192-9.366 6.283zM28.25 18.117l-3.202-2.104 3.202-2.147v4.251z"></path>
</svg>
