<!-- Generated by IcoMoon.io -->
<svg version="1.1" xmlns="http://www.w3.org/2000/svg" width="32" height="32" viewBox="0 0 32 32">
<title>building22</title>
<path fill="#fff" d="M26.557 12.199h-4.009c-0.21-4.099-2.726-7.389-5.898-7.752-0.097-2.521-0.584-4.448-0.584-4.448s-0.487 1.927-0.584 4.448c-3.173 0.363-5.688 3.652-5.899 7.752h-4.009v1.557h20.983v-1.557z"></path>
<path fill="#fff" d="M6.29 14.223h1.619v6.538h-1.619v-6.538z"></path>
<path fill="#fff" d="M10.648 14.223h1.619v6.538h-1.619v-6.538z"></path>
<path fill="#fff" d="M19.615 14.223h1.619v6.538h-1.619v-6.538z"></path>
<path fill="#fff" d="M23.973 14.223h1.619v6.538h-1.619v-6.538z"></path>
<path fill="#fff" d="M15.256 14.223h1.619v6.538h-1.619v-6.538z"></path>
<path fill="#fff" d="M2.165 23.392h1.619v6.538h-1.619v-6.538z"></path>
<path fill="#fff" d="M6.524 23.392h1.619v6.538h-1.619v-6.538z"></path>
<path fill="#fff" d="M15.49 23.392h1.619v6.538h-1.619v-6.538z"></path>
<path fill="#fff" d="M26.557 21.322h-24.792v1.557h28.47v-1.557z"></path>
<path fill="#fff" d="M1.765 30.444h28.47v1.556h-28.47v-1.556z"></path>
<path fill="#fff" d="M19.848 23.392h1.619v6.538h-1.619v-6.538z"></path>
<path fill="#fff" d="M23.807 23.392h1.619v6.538h-1.619v-6.538z"></path>
<path fill="#fff" d="M28.165 23.392h1.619v6.538h-1.619v-6.538z"></path>
<path fill="#fff" d="M11.131 23.392h1.619v6.538h-1.619v-6.538z"></path>
</svg>
