<!-- Generated by IcoMoon.io -->
<svg version="1.1" xmlns="http://www.w3.org/2000/svg" width="32" height="32" viewBox="0 0 32 32">
<title>ic_group_work_48px</title>
<path fill="#fff" d="M16 2.667c-7.367 0-13.333 5.967-13.333 13.333 0 7.36 5.967 13.333 13.333 13.333s13.333-5.973 13.333-13.333c0-7.367-5.967-13.333-13.333-13.333zM10.667 23.333c-1.84 0-3.333-1.493-3.333-3.333s1.493-3.333 3.333-3.333 3.333 1.493 3.333 3.333-1.493 3.333-3.333 3.333zM12.667 10.667c0-1.84 1.493-3.333 3.333-3.333s3.333 1.493 3.333 3.333-1.493 3.333-3.333 3.333-3.333-1.493-3.333-3.333zM21.333 23.333c-1.84 0-3.333-1.493-3.333-3.333s1.493-3.333 3.333-3.333 3.333 1.493 3.333 3.333-1.493 3.333-3.333 3.333z"></path>
</svg>
