<!-- Generated by IcoMoon.io -->
<svg version="1.1" xmlns="http://www.w3.org/2000/svg" width="32" height="32" viewBox="0 0 32 32">
<title>city08</title>
<path fill="#fff" d="M1.998 10.706v21.294h12.018v-21.294h-12.018zM7.339 28.549h-3.818v-1.899h3.818v1.899zM7.339 24.981h-3.818v-1.899h3.818v1.899zM7.339 21.412h-3.818v-1.899h3.818v1.899zM7.339 17.843h-3.818v-1.899h3.818v1.899zM7.339 14.275h-3.818v-1.899h3.818v1.899zM12.493 28.549h-3.818v-1.899h3.818v1.899zM12.493 24.981h-3.818v-1.899h3.818v1.899zM12.493 21.412h-3.818v-1.899h3.818v1.899zM12.493 17.843h-3.818v-1.899h3.818v1.899zM12.493 14.275h-3.818v-1.899h3.818v1.899z"></path>
<path fill="#fff" d="M11.418 0v8.807h4.496v23.193h14.088v-32h-18.584zM15.245 7.137h-2.391v-1.899h2.391v1.899zM15.245 3.569h-2.391v-1.899h2.391v1.899zM19.685 28.549h-2.391v-1.899h2.391v1.899zM19.685 24.981h-2.391v-1.899h2.391v1.899zM19.685 21.412h-2.391v-1.899h2.391v1.899zM19.685 17.843h-2.391v-1.899h2.391v1.899zM19.685 14.275h-2.391v-1.899h2.391v1.899zM19.685 10.706h-2.391v-1.899h2.391v1.899zM19.685 7.137h-2.391v-1.899h2.391v1.899zM19.685 3.569h-2.391v-1.899h2.391v1.899zM24.126 28.549h-2.391v-1.899h2.391v1.899zM24.126 24.981h-2.391v-1.899h2.391v1.899zM24.126 21.412h-2.391v-1.899h2.391v1.899zM24.126 17.843h-2.391v-1.899h2.391v1.899zM24.126 14.275h-2.391v-1.899h2.391v1.899zM24.126 10.706h-2.391v-1.899h2.391v1.899zM24.126 7.137h-2.391v-1.899h2.391v1.899zM24.126 3.569h-2.391v-1.899h2.391v1.899zM28.567 28.549h-2.391v-1.899h2.391v1.899zM28.567 24.981h-2.391v-1.899h2.391v1.899zM28.567 21.412h-2.391v-1.899h2.391v1.899zM28.567 17.843h-2.391v-1.899h2.391v1.899zM28.567 14.275h-2.391v-1.899h2.391v1.899zM28.567 10.706h-2.391v-1.899h2.391v1.899zM28.567 7.137h-2.391v-1.899h2.391v1.899zM28.567 3.569h-2.391v-1.899h2.391v1.899z"></path>
</svg>
