<!-- Generated by IcoMoon.io -->
<svg version="1.1" xmlns="http://www.w3.org/2000/svg" width="32" height="32" viewBox="0 0 32 32">
<title>city02</title>
<path fill="#fff" d="M27.506 12.456v-9.546h-3.777v13.806h-2.17v-6.108h-5.559v-4.179h-4.888v9.802h-1.213v-3.052h-5.699v-4.179h-4.2v20.090h32.001v-16.636h-4.494zM2.574 14.297h-1.384v-3.286h1.384v3.286zM5.896 20.686h-1.384v-5.571h1.384v5.571zM8.18 18.402h-1.384v-3.287h1.384v3.287zM13.37 15.94h-1.384v-3.286h1.384v3.286zM13.37 11.217h-1.384v-3.287h1.384v3.287zM15.724 20.533h-1.384v-3.286h1.384v3.286zM18.284 15.94h-1.384v-3.286h1.384v3.286zM26.104 18.89h-1.384v-3.287h1.384v3.287zM26.104 12.86h-1.384v-3.286h1.384v3.286zM26.104 7.38h-1.384v-3.286h1.384v3.286zM29.011 21.674h-1.384v-5.57h1.384v5.57z"></path>
</svg>
