<!-- Generated by IcoMoon.io -->
<svg version="1.1" xmlns="http://www.w3.org/2000/svg" width="32" height="32" viewBox="0 0 32 32">
<title>city03</title>
<path fill="#fff" d="M3.2 23.467c-0.294 0-0.533 0.239-0.533 0.533v1.067c0 0.294 0.239 0.533 0.533 0.533s0.533-0.239 0.533-0.533v-1.067c0-0.294-0.239-0.533-0.533-0.533z"></path>
<path fill="#fff" d="M3.2 26.667c-0.294 0-0.533 0.239-0.533 0.533v1.067c0 0.294 0.239 0.533 0.533 0.533s0.533-0.239 0.533-0.533v-1.067c0-0.294-0.239-0.533-0.533-0.533z"></path>
<path fill="#fff" d="M3.2 20.267c-0.294 0-0.533 0.239-0.533 0.533v1.067c0 0.294 0.239 0.533 0.533 0.533s0.533-0.239 0.533-0.533v-1.067c0-0.294-0.239-0.533-0.533-0.533z"></path>
<path fill="#fff" d="M5.333 23.467c-0.294 0-0.533 0.239-0.533 0.533v1.067c0 0.294 0.239 0.533 0.533 0.533s0.533-0.239 0.533-0.533v-1.067c0-0.294-0.239-0.533-0.533-0.533z"></path>
<path fill="#fff" d="M5.333 20.267c-0.294 0-0.533 0.239-0.533 0.533v1.067c0 0.294 0.239 0.533 0.533 0.533s0.533-0.239 0.533-0.533v-1.067c0-0.294-0.239-0.533-0.533-0.533z"></path>
<path fill="#fff" d="M5.333 26.667c-0.294 0-0.533 0.239-0.533 0.533v1.067c0 0.294 0.239 0.533 0.533 0.533s0.533-0.239 0.533-0.533v-1.067c0-0.294-0.239-0.533-0.533-0.533z"></path>
<path fill="#fff" d="M30.933 5.867h-1.067v-1.6c0-0.294-0.239-0.533-0.533-0.533h-3.2c-0.294 0-0.533 0.239-0.533 0.533v1.6h-1.067c-0.294 0-0.533 0.239-0.533 0.533v8.533h-0.533v-1.6c0-0.294-0.239-0.533-0.533-0.533h-0.533v-0.533c0-0.294-0.239-0.533-0.533-0.533s-0.533 0.239-0.533 0.533v0.533h-0.533c-0.294 0-0.533 0.239-0.533 0.533v1.6h-1.6v-10.667c0-0.294-0.239-0.533-0.533-0.533h-1.6v-3.2c-0-0.294-0.239-0.533-0.533-0.533h-6.4c-0.294 0-0.533 0.239-0.533 0.533v3.2h-1.6c-0.294 0-0.533 0.239-0.533 0.533v13.867h-1.067v-1.6c0-0.294-0.239-0.533-0.533-0.533h-3.2c-0.294 0-0.533 0.239-0.533 0.533v1.6h-0.533c-0.294 0-0.533 0.239-0.533 0.533v12.8c0 0.294 0.239 0.533 0.533 0.533h29.867c0.294 0 0.533-0.239 0.533-0.533v-25.067c-0-0.294-0.239-0.533-0.533-0.533zM15.467 6.4c0-0.294 0.239-0.533 0.533-0.533s0.533 0.239 0.533 0.533v8.533h-1.067v-8.533zM13.333 2.667c0-0.294 0.239-0.533 0.533-0.533s0.533 0.239 0.533 0.533v1.6c0 0.294-0.239 0.533-0.533 0.533s-0.533-0.239-0.533-0.533v-1.6zM13.333 6.4c0-0.294 0.239-0.533 0.533-0.533s0.533 0.239 0.533 0.533v8.533h-1.067v-8.533zM11.2 2.667c0-0.294 0.239-0.533 0.533-0.533s0.533 0.239 0.533 0.533v1.6c0 0.294-0.239 0.533-0.533 0.533s-0.533-0.239-0.533-0.533v-1.6zM9.067 6.4c0-0.294 0.239-0.533 0.533-0.533s0.533 0.239 0.533 0.533v11.733h-1.067v-11.733zM11.2 29.867h-1.6c-0.294 0-0.533-0.239-0.533-0.533s0.239-0.533 0.533-0.533h1.6v1.067zM11.2 27.733h-1.6c-0.294 0-0.533-0.239-0.533-0.533s0.239-0.533 0.533-0.533h1.6v1.067zM11.2 25.6h-1.6c-0.294 0-0.533-0.239-0.533-0.533s0.239-0.533 0.533-0.533h1.6v1.067zM11.2 23.467h-1.6c-0.294 0-0.533-0.239-0.533-0.533s0.239-0.533 0.533-0.533h1.6v1.067zM11.2 20.267h-3.733c-0.294 0-0.533 0.239-0.533 0.533v10.133h-5.333v-11.733h9.6v1.067zM11.2 15.467v-9.067c0-0.294 0.239-0.533 0.533-0.533s0.533 0.239 0.533 0.533v8.533h-0.533c-0.294 0-0.533 0.239-0.533 0.533zM24 30.933h-1.067v-13.333c0-0.294-0.239-0.533-0.533-0.533s-0.533 0.239-0.533 0.533v13.333h-1.067v-13.333c0-0.294-0.239-0.533-0.533-0.533s-0.533 0.239-0.533 0.533v13.333h-1.067v-13.333c0-0.294-0.239-0.533-0.533-0.533s-0.533 0.239-0.533 0.533v13.333h-1.067v-13.333c0-0.294-0.239-0.533-0.533-0.533s-0.533 0.239-0.533 0.533v13.333h-1.067v-13.333c0-0.294-0.239-0.533-0.533-0.533s-0.533 0.239-0.533 0.533v13.333h-1.067v-14.933h11.733v14.933zM27.2 28.904c0 0.294-0.239 0.533-0.533 0.533s-0.533-0.239-0.533-0.533v-1.067c0-0.294 0.239-0.533 0.533-0.533s0.533 0.239 0.533 0.533v1.067zM27.2 25.704c0 0.294-0.239 0.533-0.533 0.533s-0.533-0.239-0.533-0.533v-1.067c0-0.294 0.239-0.533 0.533-0.533s0.533 0.239 0.533 0.533v1.067zM27.2 22.504c0 0.294-0.239 0.533-0.533 0.533s-0.533-0.239-0.533-0.533v-1.067c0-0.294 0.239-0.533 0.533-0.533s0.533 0.239 0.533 0.533v1.067zM27.2 19.304c0 0.294-0.239 0.533-0.533 0.533s-0.533-0.239-0.533-0.533v-1.067c0-0.294 0.239-0.533 0.533-0.533s0.533 0.239 0.533 0.533v1.067zM27.2 16.104c0 0.294-0.239 0.533-0.533 0.533s-0.533-0.239-0.533-0.533v-1.067c0-0.294 0.239-0.533 0.533-0.533s0.533 0.239 0.533 0.533v1.067zM27.2 12.904c0 0.294-0.239 0.533-0.533 0.533s-0.533-0.239-0.533-0.533v-1.067c0-0.294 0.239-0.533 0.533-0.533s0.533 0.239 0.533 0.533v1.067zM27.2 9.704c0 0.294-0.239 0.533-0.533 0.533s-0.533-0.239-0.533-0.533v-1.067c0-0.294 0.239-0.533 0.533-0.533s0.533 0.239 0.533 0.533v1.067zM29.333 28.904c0 0.294-0.239 0.533-0.533 0.533s-0.533-0.239-0.533-0.533v-1.067c0-0.294 0.239-0.533 0.533-0.533s0.533 0.239 0.533 0.533v1.067zM29.333 25.704c0 0.294-0.239 0.533-0.533 0.533s-0.533-0.239-0.533-0.533v-1.067c0-0.294 0.239-0.533 0.533-0.533s0.533 0.239 0.533 0.533v1.067zM29.333 22.504c0 0.294-0.239 0.533-0.533 0.533s-0.533-0.239-0.533-0.533v-1.067c0-0.294 0.239-0.533 0.533-0.533s0.533 0.239 0.533 0.533v1.067zM29.333 19.304c0 0.294-0.239 0.533-0.533 0.533s-0.533-0.239-0.533-0.533v-1.067c0-0.294 0.239-0.533 0.533-0.533s0.533 0.239 0.533 0.533v1.067zM29.333 16.104c0 0.294-0.239 0.533-0.533 0.533s-0.533-0.239-0.533-0.533v-1.067c0-0.294 0.239-0.533 0.533-0.533s0.533 0.239 0.533 0.533v1.067zM29.333 12.904c0 0.294-0.239 0.533-0.533 0.533s-0.533-0.239-0.533-0.533v-1.067c0-0.294 0.239-0.533 0.533-0.533s0.533 0.239 0.533 0.533v1.067zM29.333 9.704c0 0.294-0.239 0.533-0.533 0.533s-0.533-0.239-0.533-0.533v-1.067c0-0.294 0.239-0.533 0.533-0.533s0.533 0.239 0.533 0.533v1.067z"></path>
</svg>
