<!-- Generated by IcoMoon.io -->
<svg version="1.1" xmlns="http://www.w3.org/2000/svg" width="32" height="32" viewBox="0 0 32 32">
<title>coins-1</title>
<path fill="#fff" d="M29.239 5.174c0 2.065-6.464 3.74-14.438 3.74s-14.438-1.674-14.438-3.74c0-2.065 6.464-3.74 14.438-3.74s14.438 1.674 14.438 3.74z"></path>
<path fill="#fff" d="M4.57 12.89c2.885 0.848 6.518 1.347 10.231 1.315 8.193-0.072 12.022-1.984 12.022-1.984 1.558-0.66 2.446-1.391 2.446-2.056v-3.033c0-0.036-0.004-0.071-0.009-0.105-0.506 0.843-1.759 1.474-2.914 1.901v1.923c0 0.265-0.215 0.48-0.48 0.48s-0.48-0.215-0.48-0.48v-1.603c-0.289 0.087-0.552 0.158-0.768 0.213v2.334c0 0.353-0.286 0.64-0.64 0.64s-0.64-0.286-0.64-0.64v-2.058c-2.396 0.452-5.347 0.72-8.539 0.72-7.586 0-13.812-1.507-14.46-3.429-0.006 0.035-0.009 0.070-0.009 0.105v3.099c0 0.886 1.584 1.88 4.238 2.66z"></path>
<path fill="#fff" d="M31.991 15.283c-0.506 0.843-1.759 1.474-2.914 1.901v1.923c0 0.265-0.215 0.48-0.48 0.48s-0.48-0.215-0.48-0.48v-1.603c-0.289 0.087-0.552 0.158-0.768 0.213v2.334c0 0.353-0.286 0.64-0.64 0.64s-0.64-0.286-0.64-0.64v-2.058c-2.396 0.452-5.347 0.72-8.539 0.72-7.586 0-13.812-1.507-14.459-3.429-0.006 0.035-0.009 0.070-0.009 0.105v3.099c0 0.886 1.584 1.88 4.238 2.66 2.885 0.848 6.518 1.347 10.231 1.315 8.193-0.072 12.022-1.984 12.022-1.984 1.558-0.66 2.446-1.391 2.446-2.056v-3.033c0-0.036-0.004-0.071-0.009-0.105z"></path>
<path fill="#fff" d="M14.469 26.814c-3.192 0-6.143-0.267-8.539-0.72v2.058c0 0.353-0.287 0.64-0.64 0.64s-0.64-0.286-0.64-0.64v-2.334c-0.216-0.055-0.478-0.126-0.768-0.213v1.603c0 0.265-0.215 0.48-0.48 0.48s-0.48-0.215-0.48-0.48v-1.923c-1.155-0.427-2.407-1.058-2.914-1.901-0.005 0.035-0.009 0.070-0.009 0.105v3.033c0 0.666 0.888 1.397 2.446 2.056 0 0 3.83 1.912 12.022 1.984 3.713 0.033 7.346-0.467 10.231-1.315 2.653-0.78 4.238-1.774 4.238-2.66v-3.099c0-0.036-0.004-0.071-0.009-0.105-0.647 1.921-6.873 3.429-14.459 3.429z"></path>
<path fill="#fff" d="M15.278 15.618c-3.711 0.1-7.346-0.467-10.231-1.315-0.721-0.212-1.363-0.44-1.916-0.677 0.283 2.001 6.634 3.6 14.427 3.6 7.974 0 14.438-1.674 14.438-3.74 0-0.738-0.825-1.426-2.25-2.005v0.096c0 0.699-0.979 1.471-2.686 2.156-0 0-3.756 1.669-11.783 1.885z"></path>
<path fill="#fff" d="M14.506 25.336c7.794 0 14.144-1.6 14.427-3.6-0.553 0.237-1.195 0.465-1.916 0.677-2.885 0.848-6.52 1.414-10.231 1.315-8.027-0.216-11.783-1.885-11.783-1.885-1.707-0.685-2.686-1.456-2.686-2.156v-0.096c-1.424 0.58-2.25 1.267-2.25 2.005-0 2.065 6.464 3.74 14.438 3.74z"></path>
</svg>
