<!-- Generated by IcoMoon.io -->
<svg version="1.1" xmlns="http://www.w3.org/2000/svg" width="32" height="32" viewBox="0 0 32 32">
<title>cube07</title>
<path fill="#fff" d="M31.553 27.429l-5.56-3.215 0.007-10.044c0-0.007 0-0.007 0-0.013s0-0.020 0-0.027 0-0.033-0.007-0.053c0-0.007 0-0.013 0-0.027 0-0.027-0.007-0.046-0.013-0.066 0-0.007-0.007-0.020-0.007-0.027-0.007-0.020-0.007-0.040-0.013-0.053 0-0.007-0.007-0.013-0.007-0.020-0.007-0.027-0.020-0.046-0.027-0.073 0-0.007-0.007-0.013-0.007-0.020-0.013-0.027-0.020-0.046-0.033-0.073v0 0c-0.013-0.020-0.027-0.046-0.040-0.066-0.007-0.007-0.007-0.013-0.013-0.020-0.013-0.020-0.033-0.040-0.047-0.060-0.007-0.007-0.013-0.013-0.013-0.013-0.013-0.013-0.027-0.027-0.040-0.040-0.007-0.007-0.013-0.013-0.020-0.020-0.020-0.013-0.033-0.033-0.053-0.046-0.007-0.007-0.013-0.013-0.020-0.013-0.013-0.007-0.027-0.020-0.040-0.027-0.007-0.007-0.020-0.013-0.027-0.013l-0.007-0.007-8.735-5.049v-6.37c0-0.498-0.399-0.897-0.897-0.897s-0.897 0.399-0.897 0.897v6.424l-8.669 5.002c-0.007 0.007-0.020 0.013-0.027 0.013-0.013 0.007-0.027 0.020-0.040 0.027-0.007 0.007-0.013 0.013-0.020 0.013-0.020 0.013-0.033 0.027-0.053 0.046-0.007 0.007-0.013 0.013-0.020 0.020-0.013 0.013-0.027 0.027-0.040 0.040-0.007 0.007-0.013 0.013-0.013 0.013-0.013 0.020-0.033 0.040-0.046 0.060-0.007 0.007-0.007 0.013-0.013 0.020-0.033 0.046-0.060 0.093-0.080 0.139 0 0.007-0.007 0.013-0.007 0.020-0.013 0.020-0.020 0.046-0.027 0.073 0 0.007-0.007 0.013-0.007 0.020-0.007 0.020-0.013 0.040-0.013 0.053 0 0.007-0.007 0.020-0.007 0.027-0.007 0.020-0.007 0.046-0.013 0.073 0 0.007 0 0.013 0 0.027 0 0.020 0 0.033-0.007 0.053 0 0.007 0 0.020 0 0.027s0 0.007 0 0.013l-0.007 10.117-5.48 3.162c-0.432 0.246-0.578 0.797-0.332 1.222 0.166 0.286 0.465 0.452 0.777 0.452 0.153 0 0.306-0.040 0.445-0.12l5.54-3.195 8.629 4.989c0 0 0.007 0 0.007 0.007 0.033 0.020 0.066 0.033 0.1 0.047h0.007c0.033 0.013 0.060 0.020 0.093 0.033 0.007 0 0.020 0.007 0.027 0.007 0.027 0.007 0.053 0.013 0.080 0.013 0.007 0 0.020 0 0.027 0.007 0.033 0.007 0.073 0.007 0.106 0.007v0c0.033 0 0.073 0 0.106-0.007 0.007 0 0.020 0 0.027-0.007 0.027-0.007 0.053-0.007 0.080-0.013 0.007 0 0.020-0.007 0.027-0.007 0.033-0.007 0.066-0.020 0.093-0.033h0.007c0.033-0.013 0.066-0.033 0.1-0.047 0 0 0.007 0 0.007-0.007l8.702-5.015 5.56 3.215c0.14 0.080 0.299 0.12 0.445 0.12 0.312 0 0.611-0.159 0.777-0.445 0.239-0.452 0.093-1.003-0.332-1.249zM15.052 28.459l-7.347-4.251 0.007-8.49 7.347 4.251-0.007 8.49zM15.949 18.415l-7.347-4.251 7.354-4.238 7.347 4.251-7.354 4.238zM24.2 24.214l-7.354 4.238 0.007-8.49 7.347-4.238v8.49z"></path>
</svg>
