<!-- Generated by IcoMoon.io -->
<svg version="1.1" xmlns="http://www.w3.org/2000/svg" width="32" height="32" viewBox="0 0 32 32">
<title>decoration</title>
<path fill="#fff" d="M15.203 1.034c0-0.312-0.121-0.342-0.269-0.068l-3.912 7.279c-0.148 0.275-0.119 0.706 0.065 0.959l3.784 5.211c0.183 0.252 0.333 0.204 0.333-0.108l-0.001-13.273z"></path>
<path fill="#fff" d="M17.060 0.96c-0.148-0.275-0.269-0.244-0.269 0.068l0.001 13.261c0 0.312 0.15 0.361 0.334 0.108l3.781-5.202c0.183-0.252 0.213-0.684 0.065-0.959l-3.912-7.276z"></path>
<path fill="#fff" d="M31.219 11.521c0.297-0.096 0.288-0.221-0.019-0.276l-8.118-1.47c-0.307-0.056-0.708 0.105-0.892 0.358l-3.78 5.201c-0.183 0.252-0.091 0.38 0.206 0.284l12.603-4.096z"></path>
<path fill="#fff" d="M5.535 29.888c-0.042 0.309 0.073 0.356 0.257 0.103l7.791-10.719c0.184-0.252 0.091-0.38-0.206-0.284l-6.112 1.986c-0.297 0.096-0.574 0.428-0.616 0.737l-1.114 8.175z"></path>
<path fill="#fff" d="M26.206 30.025c0.183 0.252 0.299 0.206 0.257-0.103l-1.111-8.203c-0.042-0.309-0.319-0.641-0.616-0.738l-6.134-1.995c-0.297-0.097-0.39 0.031-0.206 0.284l7.809 10.755z"></path>
<path fill="#fff" d="M31.873 13.261c0.216-0.226 0.149-0.331-0.148-0.235l-12.623 4.102c-0.297 0.096-0.297 0.254 0 0.351l6.129 1.994c0.297 0.097 0.716-0.009 0.931-0.235l5.711-5.977z"></path>
<path fill="#fff" d="M24.735 31.16c0.281 0.136 0.361 0.040 0.178-0.213l-7.786-10.723c-0.183-0.252-0.333-0.204-0.333 0.108l0.001 6.43c0 0.312 0.23 0.678 0.511 0.814l7.43 3.584z"></path>
<path fill="#fff" d="M0.802 11.243c-0.307 0.056-0.315 0.18-0.019 0.277l12.583 4.093c0.297 0.097 0.389-0.031 0.206-0.284l-3.773-5.196c-0.183-0.252-0.585-0.414-0.891-0.358l-8.106 1.468z"></path>
<path fill="#fff" d="M7.056 30.954c-0.183 0.252-0.104 0.348 0.178 0.213l7.461-3.591c0.281-0.135 0.511-0.501 0.511-0.813l-0.001-6.454c0-0.312-0.15-0.361-0.334-0.108l-7.816 10.753z"></path>
<path fill="#fff" d="M0.274 13.024c-0.297-0.097-0.363 0.009-0.148 0.235l5.706 5.974c0.215 0.226 0.635 0.331 0.931 0.235l6.122-1.99c0.297-0.096 0.297-0.254 0-0.351l-12.613-4.103z"></path>
</svg>
