<!-- Generated by IcoMoon.io -->
<svg version="1.1" xmlns="http://www.w3.org/2000/svg" width="32" height="32" viewBox="0 0 32 32">
<title>geoshape03</title>
<path fill="#fff" d="M16 1.92c-7.776 0-14.080 6.304-14.080 14.080s6.304 14.080 14.080 14.080 14.080-6.304 14.080-14.080-6.304-14.080-14.080-14.080zM24 19.36v4.64h-4.64l-3.36 3.36-3.36-3.36h-4.64v-4.64l-3.36-3.36 3.36-3.36v-4.64h4.64l3.36-3.36 3.36 3.36h4.64v4.64l3.36 3.36-3.36 3.36z"></path>
<path fill="#fff" d="M22.4 18.656l2.656-2.656-2.656-2.656v-3.744h-3.744l-2.656-2.656-2.656 2.656h-3.744v3.744l-2.656 2.656 2.656 2.656v3.744h3.744l2.656 2.656 2.656-2.656h3.744z"></path>
</svg>
