<!-- Generated by IcoMoon.io -->
<svg version="1.1" xmlns="http://www.w3.org/2000/svg" width="32" height="32" viewBox="0 0 32 32">
<title>geoshape05</title>
<path fill="#fff" d="M19.808 11.52l-3.712-6.4-3.68 6.4 3.68-2.144z"></path>
<path fill="#fff" d="M19.808 20.48l-3.712 2.144-3.68-2.144 3.68 6.4z"></path>
<path fill="#fff" d="M20.608 19.68l6.368-3.68-6.368-3.68 2.112 3.68z"></path>
<path fill="#fff" d="M11.616 12.32l-6.4 3.68 6.4 3.68-2.144-3.68z"></path>
<path fill="#fff" d="M19.136 12.992l-3.072-1.792-3.008 1.792-1.76 3.040 1.76 3.040 3.008 1.728 3.072-1.728 1.76-3.040z"></path>
<path fill="#fff" d="M10.848 10.848l5.12-8.928c-7.744 0-14.048 6.304-14.048 14.048l8.928-5.12z"></path>
<path fill="#fff" d="M21.152 21.152l-5.12 8.928c7.744 0 14.048-6.304 14.048-14.048l-8.928 5.12z"></path>
<path fill="#fff" d="M21.152 10.848l8.928 5.12c0-7.744-6.304-14.048-14.048-14.048l5.12 8.928z"></path>
<path fill="#fff" d="M10.848 21.152l-8.928-5.12c0 7.744 6.304 14.048 14.048 14.048l-5.12-8.928z"></path>
</svg>
