<!-- Generated by IcoMoon.io -->
<svg version="1.1" xmlns="http://www.w3.org/2000/svg" width="32" height="32" viewBox="0 0 32 32">
<title>geoshape01</title>
<path fill="#fff" d="M16 9.92c-3.36 0-6.080 2.72-6.080 6.080s2.72 6.080 6.080 6.080 6.080-2.72 6.080-6.080-2.72-6.080-6.080-6.080z"></path>
<path fill="#fff" d="M24 16c0 1.792-0.608 3.456-1.6 4.8l4.32 4.32c2.080-2.464 3.36-5.632 3.36-9.12s-1.28-6.656-3.36-9.12l-4.32 4.32c0.992 1.344 1.6 3.008 1.6 4.8z"></path>
<path fill="#fff" d="M8 16c0-1.792 0.608-3.456 1.6-4.8l-4.32-4.32c-2.080 2.464-3.36 5.632-3.36 9.12s1.28 6.656 3.36 9.12l4.32-4.32c-0.992-1.344-1.6-3.008-1.6-4.8z"></path>
<path fill="#fff" d="M11.2 9.6c1.344-0.992 3.008-1.6 4.8-1.6s3.456 0.608 4.8 1.6l4.32-4.32c-2.464-2.080-5.632-3.36-9.12-3.36s-6.656 1.28-9.12 3.36l4.32 4.32z"></path>
<path fill="#fff" d="M20.8 22.4c-1.344 0.992-3.008 1.6-4.8 1.6s-3.456-0.608-4.8-1.6l-4.32 4.32c2.464 2.080 5.632 3.36 9.12 3.36s6.656-1.28 9.12-3.36l-4.32-4.32z"></path>
</svg>
