<!-- Generated by IcoMoon.io -->
<svg version="1.1" xmlns="http://www.w3.org/2000/svg" width="32" height="32" viewBox="0 0 32 32">
<title>hexagons2</title>
<path fill="#fff" d="M22.844 11.969v-6.669c0-0.45-0.238-0.862-0.619-1.094l-5.563-3.337c-0.406-0.244-0.906-0.244-1.313 0l-5.569 3.337c-0.387 0.231-0.619 0.644-0.619 1.094v6.669c0 0.45 0.238 0.863 0.619 1.094l5.569 3.337c0.588 0.337 1.075 0.156 1.313 0l5.563-3.338c0.381-0.231 0.619-0.644 0.619-1.094z"></path>
<path fill="#fff" d="M13.75 18.938l-5.563-3.338c-0.406-0.244-0.906-0.244-1.313 0l-5.569 3.338c-0.387 0.231-0.619 0.644-0.619 1.094v6.669c0 0.45 0.237 0.863 0.619 1.094l5.569 3.337c0.588 0.337 1.075 0.156 1.313 0l5.563-3.337c0.387-0.231 0.619-0.644 0.619-1.094v-6.669c0-0.45-0.231-0.863-0.619-1.094z"></path>
<path fill="#fff" d="M30.694 18.931l-5.563-3.338c-0.406-0.244-0.906-0.244-1.313 0l-5.569 3.338c-0.387 0.231-0.619 0.644-0.619 1.094v6.669c0 0.45 0.238 0.863 0.619 1.094l5.563 3.337c0.587 0.337 1.075 0.156 1.313 0l5.563-3.337c0.387-0.231 0.619-0.644 0.619-1.094v-6.669c0.006-0.45-0.231-0.863-0.613-1.094z"></path>
</svg>
