<!-- Generated by IcoMoon.io -->
<svg version="1.1" xmlns="http://www.w3.org/2000/svg" width="32" height="32" viewBox="0 0 32 32">
<title>hexstar3</title>
<path fill="#fff" d="M23.579 1.9h-6.737l3.368 5.834z"></path>
<path fill="#fff" d="M15.158 1.9h-6.737l3.368 5.834z"></path>
<path fill="#fff" d="M7.579 2.386l-3.368 5.834h6.737z"></path>
<path fill="#fff" d="M27.789 8.221l-3.368-5.834-3.368 5.834z"></path>
<path fill="#fff" d="M3.368 9.679l-3.368 5.834h6.737z"></path>
<path fill="#fff" d="M32 15.514l-3.368-5.834-3.368 5.834z"></path>
<path fill="#fff" d="M28.632 22.321l3.368-5.834h-6.737z"></path>
<path fill="#fff" d="M0 16.486l3.368 5.834 3.368-5.834z"></path>
<path fill="#fff" d="M24.421 29.614l3.368-5.834h-6.737z"></path>
<path fill="#fff" d="M4.211 23.779l3.368 5.834 3.368-5.834z"></path>
<path fill="#fff" d="M8.421 30.1h6.737l-3.368-5.834z"></path>
<path fill="#fff" d="M16.842 30.1h6.737l-3.368-5.834z"></path>
</svg>
