<!-- Generated by IcoMoon.io -->
<svg version="1.1" xmlns="http://www.w3.org/2000/svg" width="32" height="32" viewBox="0 0 32 32">
<title>leaf</title>
<path fill="#fff" d="M31.604 4.204c-3.46-2.622-8.786-4.188-14.248-4.188-6.754 0-12.258 2.358-15.098 6.47-1.334 1.93-2.072 4.218-2.194 6.796-0.108 2.296 0.278 4.836 1.146 7.568 2.964-8.888 11.244-15.846 20.79-15.846 0 0-8.932 2.35-14.548 9.632-0.004 0.004-0.078 0.096-0.206 0.272-1.128 1.508-2.11 3.224-2.846 5.166-1.246 2.964-2.4 7.030-2.4 11.93h4c0 0-0.608-3.82 0.448-8.212 1.746 0.236 3.308 0.354 4.714 0.354 3.678 0 6.292-0.796 8.23-2.504 1.736-1.53 2.694-3.588 3.708-5.764 1.548-3.326 3.302-7.094 8.396-10.004 0.292-0.166 0.48-0.468 0.502-0.804s-0.126-0.658-0.394-0.862z"></path>
</svg>
