<!-- Generated by IcoMoon.io -->
<svg version="1.1" xmlns="http://www.w3.org/2000/svg" width="32" height="32" viewBox="0 0 32 32">
<title>medical</title>
<path fill="#fff" d="M15.991 21.845c3.223 0 5.845-2.622 5.845-5.845s-2.622-5.845-5.845-5.845-5.845 2.622-5.845 5.845 2.622 5.845 5.845 5.845zM15.991 13.459c1.401 0 2.541 1.14 2.541 2.541s-1.14 2.541-2.541 2.541c-1.401 0-2.541-1.14-2.541-2.541s1.14-2.541 2.541-2.541z"></path>
<path fill="#fff" d="M31.904 15.618c-0.049-0.092-1.235-2.274-3.787-4.463-2.354-2.019-6.367-4.427-12.117-4.427s-9.763 2.407-12.117 4.427c-2.552 2.189-3.738 4.372-3.787 4.463-0.128 0.238-0.128 0.524-0.001 0.763 0.049 0.092 1.231 2.275 3.781 4.465 2.352 2.020 6.364 4.427 12.124 4.427s9.772-2.408 12.124-4.427c2.55-2.189 3.732-4.373 3.781-4.465 0.127-0.238 0.127-0.524-0.001-0.763zM15.991 8.538c4.114 0 7.461 3.347 7.461 7.461s-3.347 7.461-7.461 7.461c-4.114 0-7.461-3.347-7.461-7.461s3.347-7.461 7.461-7.461z"></path>
</svg>
