<!-- Generated by IcoMoon.io -->
<svg version="1.1" xmlns="http://www.w3.org/2000/svg" width="32" height="32" viewBox="0 0 32 32">
<title>molecule10</title>
<path fill="#fff" d="M6.196 27.234l-1.43-1.43 11.983-12.528 12.596-12.051 1.43 1.498-12.596 11.983z"></path>
<path fill="#fff" d="M27.438 28.868l-10.689-14.162-10.621-8.238 1.294-1.566 10.757 8.374 10.894 14.366z"></path>
<path fill="#fff" d="M24.987 14.026c0 3.873-3.14 7.013-7.013 7.013s-7.013-3.14-7.013-7.013c0-3.873 3.14-7.013 7.013-7.013s7.013 3.14 7.013 7.013z"></path>
<path fill="#fff" d="M11.030 26.485c0 3.046-2.469 5.515-5.515 5.515s-5.515-2.469-5.515-5.515c0-3.046 2.469-5.515 5.515-5.515s5.515 2.469 5.515 5.515z"></path>
<path fill="#fff" d="M10.962 5.651c0 2.331-1.89 4.221-4.221 4.221s-4.221-1.89-4.221-4.221c0-2.331 1.89-4.221 4.221-4.221s4.221 1.89 4.221 4.221z"></path>
<path fill="#fff" d="M32 28.255c0 2.068-1.677 3.745-3.745 3.745s-3.745-1.677-3.745-3.745c0-2.068 1.677-3.745 3.745-3.745s3.745 1.677 3.745 3.745z"></path>
<path fill="#fff" d="M32 2.996c0 1.655-1.341 2.996-2.996 2.996s-2.996-1.341-2.996-2.996c0-1.655 1.341-2.996 2.996-2.996s2.996 1.341 2.996 2.996z"></path>
</svg>
