<!-- Generated by IcoMoon.io -->
<svg version="1.1" xmlns="http://www.w3.org/2000/svg" width="32" height="32" viewBox="0 0 32 32">
<title>moon</title>
<path fill="#fff" d="M32 16c0-8.822-7.178-16-16-16-1.855 0-3.635 0.321-5.293 0.904 0.078 0.079 0.15 0.161 0.222 0.244s0.143 0.168 0.211 0.255c0.512 0.659 0.884 1.431 1.062 2.276 0.021 0.099 0.033 0.201 0.049 0.302 0.016 0.102 0.034 0.203 0.045 0.308 1.145-0.349 2.358-0.538 3.615-0.538 6.853 0 12.429 5.576 12.429 12.429s-5.576 12.429-12.429 12.429-12.429-5.576-12.429-12.429c0-2.175 0.563-4.22 1.549-6-0.101-0.032-0.197-0.071-0.296-0.108-0.095-0.036-0.19-0.073-0.283-0.114-0.736-0.327-1.386-0.808-1.914-1.401-0.074-0.082-0.146-0.166-0.214-0.252-0.068-0.086-0.133-0.172-0.196-0.261-1.352 2.345-2.129 5.061-2.129 7.957 0 8.822 7.178 16 16 16s16-7.178 16-16z"></path>
<path fill="#fff" d="M24.388 15.955c0-4.699-3.823-8.522-8.522-8.522s-8.522 3.823-8.522 8.522c0 4.699 3.823 8.522 8.522 8.522s8.522-3.823 8.522-8.522z"></path>
<path fill="#fff" d="M9.842 1.561c-0.079-0.076-0.159-0.151-0.243-0.221-0.783-0.646-1.786-1.034-2.881-1.034-2.501 0-4.529 2.027-4.529 4.529 0 0.797 0.207 1.545 0.569 2.195 0.054 0.097 0.111 0.191 0.172 0.283 0.061 0.094 0.128 0.183 0.196 0.273 0.487 0.634 1.135 1.137 1.887 1.443 0.095 0.039 0.192 0.074 0.29 0.106 0.103 0.034 0.208 0.062 0.314 0.088 0.354 0.089 0.721 0.14 1.102 0.14 2.501 0 4.529-2.027 4.529-4.529 0-0.057-0.006-0.113-0.009-0.17-0.004-0.109-0.008-0.218-0.019-0.324-0.011-0.104-0.029-0.206-0.047-0.307-0.152-0.851-0.542-1.618-1.099-2.233-0.075-0.082-0.151-0.163-0.231-0.239z"></path>
</svg>
