<!-- Generated by IcoMoon.io -->
<svg version="1.1" xmlns="http://www.w3.org/2000/svg" width="32" height="32" viewBox="0 0 32 32">
<title>plane03</title>
<path fill="#fff" d="M2.108 23.166c0.216-0.229 0.426-0.655 0.396-2.018l6.117-0.614c-0.767 1.754-1.302 2.947-1.303 2.949-0.011 0.023-0.019 0.047-0.026 0.071-0.034 0.118-0.187 0.728 0.152 1.178 0.135 0.179 0.393 0.392 0.856 0.392 0.228 0 0.483-0.052 0.779-0.158 0.493-0.178 1.141-0.336 1.899-0.465v1.262c0 0.296 0.239 0.535 0.535 0.535h3.209c0.296 0 0.535-0.239 0.535-0.535v-1.634l1.016-0.008c0.23 0.002 0.389 0.007 0.589 0.013v1.63c0 0.296 0.239 0.535 0.535 0.535h3.209c0.296 0 0.535-0.239 0.535-0.535v-1.236c0.771 0.137 1.274 0.296 1.67 0.437 0.296 0.107 0.549 0.159 0.775 0.159 0.485 0 0.736-0.247 0.842-0.395 0.329-0.457 0.149-1.076 0.11-1.195-0.006-0.018-0.012-0.034-0.020-0.051 0 0-0.541-1.205-1.314-2.974l6.293 0.63c-0.030 1.358 0.179 1.782 0.394 2.010 0.145 0.153 0.335 0.237 0.534 0.237 0.090 0 0.168-0.017 0.234-0.040 0.144-0.025 0.316-0.093 0.479-0.258 0.434-0.44 0.925-1.651 0.857-7.161l-0.003-0.263c0-2.522-0.306-5.527-1.764-5.527-0.334 0-0.634 0.135-0.864 0.39-0.523 0.577-0.597 1.725-0.584 2.481l-9.246-1.222c-0.179-0.451-0.349-0.888-0.509-1.305-0.994-2.606-1.877-4.172-2.621-4.655-0.124-0.081-0.277-0.122-0.452-0.122-0.164 0-0.313 0.036-0.341 0.043-0.034 0.009-0.067 0.021-0.098 0.036-0.275 0.132-1.111 0.533-2.7 4.697-0.162 0.424-0.335 0.87-0.518 1.328l-9.071 1.199c0.012-0.732-0.065-1.829-0.575-2.393-0.233-0.257-0.535-0.394-0.873-0.394-1.459 0-1.765 2.983-1.765 5.485l-0.003 0.263c-0.067 5.492 0.423 6.7 0.857 7.139 0.165 0.167 0.339 0.236 0.483 0.26 0.208 0.069 0.553 0.020 0.762-0.201zM12.851 13.65c0.012-0.039 0.303-0.977 0.973-2.666 0.628-1.584 1.738-1.707 2.063-1.707 0.079 0 0.125 0.007 0.125 0.007 2.066 0.030 2.886 4.217 2.921 4.395 0.014 0.078-0.006 0.159-0.057 0.22s-0.126 0.096-0.205 0.096v0 0h-5.563c-0.085 0-0.165-0.040-0.215-0.109-0.051-0.068-0.066-0.157-0.041-0.237zM16.326 15.392v6.676c0 0.341-0.24 0.619-0.535 0.619s-0.535-0.278-0.535-0.619v-6.676c0-0.341 0.24-0.619 0.535-0.619s0.535 0.278 0.535 0.619z"></path>
</svg>
