<!-- Generated by IcoMoon.io -->
<svg version="1.1" xmlns="http://www.w3.org/2000/svg" width="32" height="32" viewBox="0 0 32 32">
<title>nature</title>
<path fill="#fff" d="M31.106 13.512c-1.831 3.244-4.5 6.694-7.7 9.894s-6.644 5.869-9.894 7.7c0.813 0.131 1.637 0.206 2.488 0.206 8.444 0 15.313-6.869 15.313-15.313 0-0.844-0.075-1.675-0.206-2.488z"></path>
<path fill="#fff" d="M29.769 10.575c2.363-4.987 1.45-7.444 0.275-8.619-1.106-1.1-3.375-2-7.925-0.038-0.019 0.006-0.038 0.025-0.063 0.031-1.856-0.806-3.9-1.262-6.056-1.262-8.444 0-15.313 6.869-15.313 15.313 0 2.175 0.462 4.25 1.288 6.125-0.075 0.094-0.144 0.194-0.194 0.313-1.788 4.35-0.894 6.538 0.175 7.606 0 0 0.006 0 0.006 0.006 1.881 2.144 6.331 0.8 8.613-0.281 3.5-1.656 7.412-4.556 11.025-8.169 3.613-3.606 6.512-7.525 8.169-11.025zM9.488 27.462c-3.25 1.538-5.088 1.413-5.719 0.775-0.544-0.544-0.587-1.725-0.156-3.281 0.131 0.181 0.544 1.1 1.619 1.175 0.331 0.025 1.306-0.1 3.169-0.975 2.981-1.413 6.394-3.956 9.6-7.162s5.75-6.619 7.163-9.6c0.806-1.706 0.956-2.744 0.981-3.162 0.063-1.044-0.994-1.494-1.169-1.619 1.544-0.425 2.738-0.388 3.275 0.15 0.631 0.631 0.762 2.469-0.775 5.725-1.531 3.237-4.256 6.9-7.663 10.312-3.425 3.406-7.088 6.125-10.325 7.663z"></path>
</svg>
