<!-- Generated by IcoMoon.io -->
<svg version="1.1" xmlns="http://www.w3.org/2000/svg" width="32" height="32" viewBox="0 0 32 32">
<title>spinner4</title>
<path fill="#fff" d="M6 16c0-0.38 0.022-0.756 0.064-1.126l-5.78-1.878c-0.184 0.974-0.282 1.978-0.282 3.004 0 4.6 1.942 8.748 5.052 11.666l3.572-4.916c-1.628-1.778-2.624-4.148-2.624-6.75zM26 16c0 2.602-0.994 4.972-2.624 6.75l3.572 4.916c3.11-2.918 5.052-7.066 5.052-11.666 0-1.026-0.098-2.030-0.282-3.004l-5.78 1.878c0.042 0.37 0.064 0.746 0.064 1.126zM18 6.2c2.872 0.584 5.298 2.398 6.702 4.87l5.78-1.878c-2.288-4.856-6.946-8.376-12.482-9.068v6.076zM7.298 11.070c1.404-2.472 3.828-4.286 6.702-4.87v-6.076c-5.538 0.69-10.194 4.21-12.482 9.068l5.78 1.878zM20.142 25.104c-1.262 0.576-2.664 0.896-4.142 0.896s-2.88-0.32-4.142-0.896l-3.572 4.916c2.288 1.262 4.916 1.98 7.714 1.98s5.426-0.718 7.714-1.98l-3.572-4.916z"></path>
</svg>
