<!-- Generated by IcoMoon.io -->
<svg version="1.1" xmlns="http://www.w3.org/2000/svg" width="32" height="32" viewBox="0 0 32 32">
<title>stardock01</title>
<path fill="#fff" d="M27.765 16.941v-8.471h-11.294v-5.048c0-2.139-2.353-3.422-2.353-3.422s-2.353 1.284-2.353 3.422v10.139l-1.412 1.925v5.219l-2.824 2.823v2.824h4.235l-1.412 2.823h-7.529v2.824h26.353v-15.059h-1.412zM15.529 23.529h-2.823v-6.588h2.823v6.588zM24.941 16.941h-1.412v12.235h-5.647l-1.412-2.823h4.235v-2.824l-2.823-2.823c0-2.661 0-5.253 0-5.219 0 0.028-0.651-0.855-1.412-1.896v-2.296h8.471v5.647z"></path>
</svg>
