<!-- Generated by IcoMoon.io -->
<svg version="1.1" xmlns="http://www.w3.org/2000/svg" width="32" height="32" viewBox="0 0 32 32">
<title>star</title>
<path fill="#fff" d="M15.392 0.523c0.046-0.3 0.305-0.522 0.608-0.522s0.562 0.221 0.609 0.522l1.419 9.205c0.033 0.213 0.174 0.393 0.373 0.475s0.426 0.055 0.599-0.073l7.515-5.506c0.246-0.179 0.585-0.154 0.8 0.061 0.216 0.215 0.242 0.554 0.062 0.8l-5.506 7.514c-0.128 0.174-0.155 0.4-0.073 0.599s0.262 0.34 0.475 0.373l9.207 1.42c0.301 0.046 0.521 0.305 0.521 0.608s-0.22 0.562-0.521 0.608l-9.208 1.419c-0.213 0.033-0.392 0.174-0.475 0.373-0.082 0.199-0.054 0.425 0.073 0.599l5.506 7.515c0.18 0.246 0.154 0.584-0.062 0.799-0.214 0.216-0.553 0.241-0.799 0.061l-7.515-5.506c-0.174-0.127-0.401-0.154-0.599-0.073-0.198 0.083-0.34 0.263-0.373 0.476l-1.419 9.204c-0.046 0.301-0.306 0.522-0.609 0.522s-0.562-0.22-0.608-0.522l-1.418-9.204c-0.033-0.213-0.174-0.392-0.373-0.476-0.199-0.082-0.426-0.054-0.599 0.073l-7.515 5.505c-0.246 0.18-0.585 0.154-0.8-0.061s-0.241-0.553-0.061-0.799l5.507-7.515c0.127-0.174 0.154-0.401 0.073-0.599s-0.262-0.34-0.475-0.373l-9.207-1.419c-0.301-0.046-0.522-0.305-0.522-0.608s0.221-0.562 0.522-0.608l9.207-1.42c0.213-0.033 0.393-0.174 0.475-0.373s0.054-0.426-0.073-0.599l-5.506-7.514c-0.18-0.245-0.154-0.585 0.061-0.8s0.555-0.241 0.8-0.061l7.515 5.507c0.174 0.128 0.4 0.155 0.599 0.073s0.34-0.262 0.373-0.475l1.419-9.205z"></path>
</svg>
