<!-- Generated by IcoMoon.io -->
<svg version="1.1" xmlns="http://www.w3.org/2000/svg" width="32" height="32" viewBox="0 0 32 32">
<title>stardock02</title>
<path fill="#fff" d="M17.177 8.471v-5.048c0-2.139-2.353-3.422-2.353-3.422s-2.353 1.284-2.353 3.422v10.139l-1.412 1.925v5.219l-2.823 2.823v2.824h2.823l-1.412 2.823h-6.118v2.824h24.941v-23.529h-11.294zM12.804 29.177l1.412-2.823h1.216l1.412 2.823h-4.039zM12.228 23.529l1.654-1.654v-5.465l0.931-1.269 0.083 0.114c0.352 0.482 0.643 0.879 0.868 1.183v5.436l1.654 1.654h-5.19zM25.647 29.177h-5.647l-1.412-2.823h2.824v-2.824l-2.824-2.823c0-2.64 0-5.212 0-5.219 0 0.001-0 0.001-0 0.001-0.020 0-0.663-0.872-1.411-1.897v-2.296h8.471v17.882z"></path>
</svg>
