<!-- Generated by IcoMoon.io -->
<svg version="1.1" xmlns="http://www.w3.org/2000/svg" width="32" height="32" viewBox="0 0 32 32">
<title>tool</title>
<path fill="#fff" d="M30.479 27.5l-10.48-16.52v-8.313h1.333c0.361 0 0.674-0.132 0.937-0.396s0.396-0.576 0.396-0.937-0.132-0.674-0.396-0.937c-0.263-0.264-0.576-0.396-0.937-0.396h-10.667c-0.361 0-0.674 0.132-0.938 0.396s-0.396 0.576-0.396 0.937 0.132 0.674 0.396 0.937c0.264 0.264 0.577 0.396 0.938 0.396h1.333v8.313l-10.479 16.52c-0.778 1.237-0.927 2.296-0.448 3.177s1.455 1.323 2.927 1.323h24.001c1.472 0 2.447-0.441 2.926-1.323s0.33-1.941-0.447-3.177zM8.583 21.333l5.667-8.937 0.417-0.646v-9.083h2.666v9.083l0.416 0.646 5.667 8.937h-14.833z"></path>
</svg>
