<!-- Generated by IcoMoon.io -->
<svg version="1.1" xmlns="http://www.w3.org/2000/svg" width="32" height="32" viewBox="0 0 32 32">
<title>transport</title>
<path fill="#fff" d="M23.725 10.239l-5.696 5.696c-0.248-0.483-0.573-0.936-0.977-1.34-0.399-0.399-0.851-0.726-1.338-0.978l5.696-5.696c0.429 0.334 0.841 0.694 1.232 1.085 0.389 0.388 0.748 0.802 1.083 1.233zM11.060 20.587c0.588 0.588 1.37 0.912 2.202 0.912s1.613-0.324 2.201-0.912c1.214-1.214 1.214-3.189 0-4.403-0.588-0.588-1.37-0.912-2.201-0.912s-1.614 0.324-2.202 0.912c-1.214 1.214-1.214 3.189 0 4.403zM31.483 17.166c-0.001-0.001-0.012-0.012-0.013-0.013-0.335-0.335-0.781-0.52-1.254-0.52s-0.92 0.185-1.254 0.52l-1.424 1.424-0.020-0.001 3.687-8.606c0.181-0.422 0.087-0.912-0.238-1.237l-1.279-1.279-11.071 11.071c-0.034 1.326-0.555 2.641-1.564 3.651-1.013 1.013-2.359 1.57-3.791 1.57s-2.778-0.558-3.791-1.57c-2.090-2.090-2.090-5.491 0-7.582 0.98-0.98 2.273-1.532 3.654-1.567l11.068-11.068-1.279-1.279c-0.325-0.325-0.814-0.419-1.237-0.238l-12.238 5.244c-1.139 0.342-2.231 0.836-3.246 1.477-0.289 0.182-0.479 0.486-0.517 0.826-0.030 0.269 0.038 0.537 0.188 0.757l-2.242 2.242c-0.22-0.149-0.488-0.217-0.757-0.187-0.34 0.038-0.643 0.228-0.826 0.517-1.58 2.504-2.278 5.512-1.966 8.471 0.316 3.004 1.67 5.838 3.81 7.978 2.504 2.504 5.834 3.883 9.375 3.883 0 0 0 0 0 0 2.513 0 4.959-0.705 7.073-2.040 0.289-0.182 0.479-0.486 0.517-0.826 0.030-0.269-0.038-0.537-0.188-0.757l2.242-2.242c0.22 0.15 0.488 0.218 0.757 0.188 0.34-0.038 0.643-0.228 0.826-0.517 0.547-0.867 0.986-1.796 1.316-2.761l2.076 0.074c0.014 0 0.027 0.001 0.041 0.001 0.313 0 0.598-0.13 0.803-0.34 0.006-0.006 0.013-0.011 0.019-0.017l2.741-2.741c0.335-0.335 0.52-0.781 0.52-1.255s-0.185-0.919-0.517-1.251z"></path>
</svg>
